<svg width="200" height="200" viewBox="0 0 200 200" fill="none" xmlns="http://www.w3.org/2000/svg">
<mask id="mask0_4918_148451" style="mask-type:luminance" maskUnits="userSpaceOnUse" x="0" y="0" width="200" height="200">
<path d="M157.271 200.065H44.0292C20.0453 200.065 0.609863 180.629 0.609863 156.645V43.4032C0.609863 19.4193 20.0453 -0.0161133 44.0292 -0.0161133H157.271C181.255 -0.0161133 200.69 19.4193 200.69 43.4032V156.645C200.69 180.613 181.255 200.065 157.271 200.065Z" fill="white"/>
</mask>
<g mask="url(#mask0_4918_148451)">
<path d="M150.031 200.06H51.2563C23.2725 200.06 0.595032 177.382 0.595032 149.398V50.6243C0.595032 22.6404 23.2725 -0.0369873 51.2563 -0.0369873H150.031C178.014 -0.0369873 200.692 22.6404 200.692 50.6243V149.398C200.692 177.366 178.014 200.06 150.031 200.06Z" fill="#3BFF7C"/>
</g>
<mask id="mask1_4918_148451" style="mask-type:luminance" maskUnits="userSpaceOnUse" x="0" y="0" width="200" height="200">
<path d="M157.271 200.065H44.0292C20.0453 200.065 0.609863 180.629 0.609863 156.645V43.4032C0.609863 19.4193 20.0453 -0.0161133 44.0292 -0.0161133H157.271C181.255 -0.0161133 200.69 19.4193 200.69 43.4032V156.645C200.69 180.613 181.255 200.065 157.271 200.065Z" fill="white"/>
</mask>
<g mask="url(#mask1_4918_148451)">
<path d="M68.9983 266.028H-0.808151C-36.7759 266.028 -65.9372 236.866 -65.9372 200.899V131.076C-65.9372 95.1084 -36.7759 65.9471 -0.808151 65.9471H69.0144C104.982 65.9471 134.143 95.1084 134.143 131.076V200.899C134.143 236.866 104.982 266.028 68.9983 266.028Z" fill="#2CBF5D"/>
</g>
<mask id="mask2_4918_148451" style="mask-type:luminance" maskUnits="userSpaceOnUse" x="0" y="0" width="200" height="200">
<path d="M157.271 200.065H44.0292C20.0453 200.065 0.609863 180.629 0.609863 156.645V43.4032C0.609863 19.4193 20.0453 -0.0161133 44.0292 -0.0161133H157.271C181.255 -0.0161133 200.69 19.4193 200.69 43.4032V156.645C200.69 180.613 181.255 200.065 157.271 200.065Z" fill="white"/>
</mask>
<g mask="url(#mask2_4918_148451)">
<path d="M31.546 331.817H-96.1637C-116.148 331.817 -132.341 315.623 -132.341 295.639V167.913C-132.341 147.929 -116.148 131.736 -96.1637 131.736H31.546C51.5298 131.736 67.7234 147.929 67.7234 167.913V295.623C67.7395 315.607 51.5298 331.817 31.546 331.817Z" fill="#0F401F"/>
</g>
</svg>
